<svg width="660" height="643" viewBox="0 0 160 143" fill="none" xmlns="http://www.w3.org/2000/svg">
<path d="M80.0624 118.891C107.779 118.891 130.248 96.0429 130.248 67.8581C130.248 39.6734 107.779 16.8252 80.0624 16.8252C52.3457 16.8252 29.8768 39.6734 29.8768 67.8581C29.8768 96.0429 52.3457 118.891 80.0624 118.891Z" stroke="#8FD83A" stroke-width="2" stroke-miterlimit="10" stroke-dasharray="12 12"/>
<path d="M80.0624 129.716C113.658 129.716 140.893 102.021 140.893 67.8581C140.893 33.6948 113.658 6 80.0624 6C46.4663 6 19.2313 33.6948 19.2313 67.8581C19.2313 102.021 46.4663 129.716 80.0624 129.716Z" stroke="#8FD83A" stroke-width="2" stroke-miterlimit="10" stroke-dasharray="12 12"/>
<path d="M117.823 32.3745H116.594C116.352 32.3745 116.155 32.5703 116.155 32.8117V49.2365C116.155 49.478 116.352 49.6738 116.594 49.6738H117.823C118.066 49.6738 118.262 49.478 118.262 49.2365V32.8117C118.262 32.5703 118.066 32.3745 117.823 32.3745Z" fill="#3F3D56"/>
<path d="M109.818 0H54.2713C50.1438 0 46.7979 3.333 46.7979 7.44447V135.269C46.7979 139.381 50.1438 142.714 54.2713 142.714H109.818C113.946 142.714 117.292 139.381 117.292 135.269V7.44447C117.292 3.333 113.946 0 109.818 0Z" fill="#3F3D56"/>
<path d="M107.48 3.71753H99.3939V4.68651C99.3939 5.28967 99.2746 5.88691 99.0428 6.44412C98.811 7.00133 98.4713 7.50759 98.043 7.93397C97.6147 8.36035 97.1063 8.69849 96.5468 8.92909C95.9873 9.15968 95.3877 9.2782 94.7822 9.27787H69.0652C68.4597 9.2782 67.8601 9.15968 67.3006 8.92909C66.7411 8.69849 66.2327 8.36035 65.8044 7.93397C65.3762 7.50759 65.0364 7.00133 64.8046 6.44412C64.5728 5.88691 64.4535 5.28967 64.4535 4.68651V3.71753H56.8823C55.3975 3.71753 53.9734 4.3051 52.9235 5.35098C51.8735 6.39686 51.2837 7.81538 51.2837 9.29448V133.429C51.2837 134.908 51.8735 136.327 52.9235 137.373C53.9734 138.419 55.3975 139.006 56.8823 139.006H107.48C108.965 139.006 110.389 138.419 111.439 137.373C112.489 136.327 113.079 134.908 113.079 133.429V9.30403C113.08 8.57085 112.936 7.84462 112.656 7.16689C112.375 6.48916 111.963 5.87323 111.443 5.35435C110.923 4.83547 110.305 4.42383 109.625 4.14296C108.945 3.8621 108.216 3.71753 107.48 3.71753Z" fill="white"/>
<path d="M84.3472 4.26172H75.9869C75.5772 4.26172 75.2451 4.59254 75.2451 5.00063V5.5129C75.2451 5.92099 75.5772 6.25181 75.9869 6.25181H84.3472C84.7569 6.25181 85.089 5.92099 85.089 5.5129V5.00063C85.089 4.59254 84.7569 4.26172 84.3472 4.26172Z" fill="#E6E8EC"/>
<path d="M87.7125 6.38697C88.3391 6.38697 88.847 5.88099 88.847 5.25684C88.847 4.63269 88.3391 4.12671 87.7125 4.12671C87.0859 4.12671 86.578 4.63269 86.578 5.25684C86.578 5.88099 87.0859 6.38697 87.7125 6.38697Z" fill="#E6E8EC"/>
<path d="M82.4753 86.3927C89.8403 86.3927 95.8108 80.4454 95.8108 73.109C95.8108 65.7725 89.8403 59.8252 82.4753 59.8252C75.1104 59.8252 69.1399 65.7725 69.1399 73.109C69.1399 80.4454 75.1104 86.3927 82.4753 86.3927Z" fill="white"/>
<path d="M100.015 71.2538C100.015 74.7653 98.9696 78.1979 97.0111 81.1175C95.0525 84.0371 92.2688 86.3126 89.012 87.6563C85.7552 88.9999 82.1715 89.3514 78.7141 88.6663C75.2568 87.9811 72.081 86.2901 69.5885 83.807C67.0959 81.324 65.3985 78.1604 64.7109 74.7164C64.0233 71.2724 64.3764 67.7026 65.7255 64.4585C67.0746 61.2144 69.3591 58.4416 72.2902 56.4908C75.2213 54.5401 78.6673 53.4989 82.1924 53.499C84.533 53.4991 86.8507 53.9584 89.0131 54.8507C91.1755 55.743 93.1403 57.0508 94.7953 58.6995C96.4502 60.3482 97.763 62.3055 98.6587 64.4595C99.5543 66.6136 100.015 68.9223 100.015 71.2538ZM80.1321 80.6515L93.3533 67.4816C93.4603 67.3753 93.5452 67.249 93.6031 67.11C93.6611 66.9709 93.6909 66.8219 93.6909 66.6714C93.6909 66.5208 93.6611 66.3718 93.6031 66.2327C93.5452 66.0937 93.4603 65.9674 93.3533 65.8611L91.7266 64.2525C91.62 64.146 91.4935 64.0615 91.3541 64.0038C91.2147 63.9462 91.0653 63.9165 90.9143 63.9165C90.7634 63.9165 90.614 63.9462 90.4746 64.0038C90.3352 64.0615 90.2086 64.146 90.1021 64.2525L79.3188 74.9942L74.2839 69.967C74.0678 69.7528 73.7753 69.6327 73.4705 69.6327C73.1657 69.6327 72.8733 69.7528 72.6572 69.967L71.0304 71.5969C70.8155 71.8122 70.6948 72.1035 70.6948 72.4072C70.6948 72.7108 70.8155 73.0021 71.0304 73.2174L78.5057 80.6611C78.6125 80.7677 78.7392 80.8522 78.8788 80.9099C79.0184 80.9676 79.168 80.9973 79.3191 80.9973C79.4702 80.9973 79.6199 80.9676 79.7594 80.9099C79.899 80.8522 80.0258 80.7677 80.1325 80.6611L80.1321 80.6515Z" fill="#8FD83A"/>
<path d="M49.0051 28.1357H48.8205C48.5781 28.1357 48.3816 28.3315 48.3816 28.573V32.818C48.3816 33.0595 48.5781 33.2552 48.8205 33.2552H49.0051C49.2475 33.2552 49.444 33.0595 49.444 32.818V28.573C49.444 28.3315 49.2475 28.1357 49.0051 28.1357Z" fill="#3F3D56"/>
<path d="M49.1013 37.5093H48.782C48.5395 37.5093 48.343 37.705 48.343 37.9465V45.9821C48.343 46.2236 48.5395 46.4194 48.782 46.4194H49.1013C49.3437 46.4194 49.5402 46.2236 49.5402 45.9821V37.9465C49.5402 37.705 49.3437 37.5093 49.1013 37.5093Z" fill="#3F3D56"/>
<path d="M49.0628 49.5378H48.8011C48.5587 49.5378 48.3622 49.7336 48.3622 49.9751V58.0872C48.3622 58.3287 48.5587 58.5245 48.8011 58.5245H49.0628C49.3052 58.5245 49.5017 58.3287 49.5017 58.0872V49.9751C49.5017 49.7336 49.3052 49.5378 49.0628 49.5378Z" fill="#3F3D56"/>
<path d="M34.2419 73.3008C34.2724 73.3301 34.3115 73.3488 34.3535 73.3541C34.3955 73.3595 34.4381 73.3512 34.475 73.3306C34.3963 73.3318 34.3178 73.3217 34.2419 73.3008Z" fill="url(#paint0_linear)"/>
<path d="M43.0519 76.7339L42.8218 77.9818L42.6444 78.9365L42.3216 80.6827L39.1917 82.8655C39.1917 82.8655 38.9096 82.6249 38.4442 82.2457C37.1615 81.1937 34.4656 79.0514 32.4859 77.9014C31.9767 77.5782 31.4258 77.3253 30.8483 77.1497L43.0519 76.7339Z" fill="#FEB9B9"/>
<path d="M40.7558 77.6627C40.7558 77.6627 44.4051 78.2866 44.6189 76.7342C44.8326 75.1817 42.7404 74.3427 40.9674 74.2383C39.1944 74.1338 28.553 74.8622 28.553 74.8622C28.553 74.8622 26.6759 77.356 33.4551 77.7734L40.7558 77.6627Z" fill="#3F3D56"/>
<path d="M48.7364 26.4341H29.6455V48.984H48.7364V26.4341Z" fill="#2F2E41"/>
<path opacity="0.1" d="M48.7364 26.5364H29.6455V49.0863H48.7364V26.5364Z" fill="black"/>
<path d="M7.27102 65.0363C6.95667 65.1152 6.55492 65.4182 6.10812 65.8562C4.18408 67.7536 1.42836 72.2066 1.42836 72.2066C-2.09483 68.0261 1.80385 64.7232 3.46568 63.5881C3.86973 63.3133 4.14114 63.1621 4.14114 63.1621L7.27102 65.0363Z" fill="#FEB9B9"/>
<path d="M42.8424 33.5508C42.8424 33.5508 43.7816 40.0971 47.0153 41.6559C50.2491 43.2147 42.8424 46.1279 42.8424 46.1279L32.724 42.3841C32.724 42.3841 38.462 40.513 37.3139 35.0051L42.8424 33.5508Z" fill="#FEB9B9"/>
<path d="M31.9929 72.9351L31.7641 74.1788L31.5781 75.1371L31.2554 76.8834L28.1255 79.064C28.1255 79.064 27.8434 78.8255 27.378 78.4465C26.0953 77.3945 23.3995 75.2522 21.4169 74.1022C20.9079 73.7785 20.3569 73.5256 19.7792 73.3505L31.9929 72.9351Z" fill="#FEB9B9"/>
<path d="M29.2855 74.4685C29.2855 74.4685 32.5607 74.4916 32.7577 72.9347C32.9548 71.3779 30.9728 70.5433 29.2855 70.4389C27.5982 70.3344 17.3462 71.1113 17.3462 71.1113C17.3462 71.1113 15.8918 74.0517 22.3403 74.4683L29.2855 74.4685Z" fill="#2F2E41"/>
<path d="M52.2488 98.926C52.1056 98.8557 51.9623 98.7833 51.8212 98.7131L51.4363 98.2296L46.3889 91.8538V91.9645C46.3548 93.0294 45.9914 101.467 43.1565 102.246C40.1315 103.077 36.4822 103.285 34.8186 97.674C33.155 92.0627 30.1155 79.8006 26.994 79.0724L31.6374 75.2797C31.6374 75.2797 34.7116 78.8616 35.9642 82.2902C35.9173 82.0773 33.7943 72.1961 35.5366 70.4478H50.77C50.77 70.4478 53.1217 77.1197 54.7335 80.4248C55.9884 82.9909 57.8718 89.058 59.0845 93.1638C60.285 97.2181 56.067 100.798 52.2488 98.926Z" fill="#3F3D56"/>
<path opacity="0.1" d="M51.8148 72.311C49.4632 73.6973 39.1395 73.1329 35.781 72.9072L34.8659 72.8412C34.7676 72.8412 34.8809 72.7858 34.8809 72.7858L34.975 71.8424L37.4785 65.5048L50.8827 57.7617C50.6111 58.5774 50.5214 59.8253 50.5429 61.2543C50.6048 65.8456 51.8148 72.311 51.8148 72.311Z" fill="black"/>
<path d="M51.8148 71.9976C49.4632 73.384 39.1395 72.8196 35.781 72.5939L34.8659 72.5299L34.7141 72.5171L34.8809 72.4746L35.706 72.2617L37.4783 65.1958L50.8825 57.4548C50.6111 58.2705 50.5212 59.5184 50.5427 60.9474C50.6048 65.5343 51.8148 71.9976 51.8148 71.9976Z" fill="#EFEFEF"/>
<path opacity="0.1" d="M50.5342 60.943C47.8084 61.5691 41.8098 63.406 39.5051 67.8427C37.968 70.7965 36.6746 72.0635 35.7724 72.5937L34.8573 72.5297C34.8633 72.5116 34.8683 72.4931 34.8723 72.4744L35.6974 72.2615L37.4696 65.1956L50.8739 57.4548C50.6056 58.2661 50.5128 59.514 50.5342 60.943Z" fill="black"/>
<path opacity="0.1" d="M4.14116 63.1663L7.27103 65.0361C6.95668 65.1149 6.55493 65.4179 6.10814 65.8559C5.84727 65.0977 4.21055 64.0394 3.4657 63.588C3.86956 63.3175 4.14116 63.1663 4.14116 63.1663Z" fill="black"/>
<path opacity="0.1" d="M34.2995 72.6516C34.2652 72.6694 34.2262 72.6761 34.1879 72.6708C34.1496 72.6654 34.1139 72.6483 34.0858 72.6218C34.1552 72.6421 34.2272 72.6521 34.2995 72.6516Z" fill="black"/>
<path d="M41.3824 41.2405C41.3824 41.2405 38.5647 41.5513 36.583 39.473C36.583 39.473 28.2451 41.8645 25.4214 47.2671C22.5976 52.6697 3.40149 63.2707 3.40149 63.2707C3.40149 63.2707 6.74086 65.1405 6.42651 66.0753L19.0505 58.8008C19.0505 58.8008 23.5399 55.5809 24.7863 54.8527C26.0328 54.1245 32.9251 49.6566 34.3853 61.8143C35.8454 73.9719 34.3853 72.5174 34.3853 72.5174C34.3853 72.5174 36.4718 73.2458 39.4969 67.4256C42.5219 61.6054 51.9092 60.2553 51.9092 60.2553L52.4307 54.1264C52.4307 54.1264 54.2929 50.0631 52.8584 48.3766C52.4238 47.8773 52.1347 47.2689 52.0225 46.6176C51.7852 45.0609 52.0225 42.4671 55.3446 40.312C60.4562 36.9856 62.4379 34.2854 62.4379 34.2854C62.4379 34.2854 62.5426 32.3093 59.4129 31.3743C56.2832 30.4393 43.5566 25.3477 43.5566 25.3477L43.1289 27.1151L53.1704 34.1747C53.1704 34.1747 48.1637 38.2207 44.1916 38.1228C44.1914 38.1228 44.9289 41.1361 41.3824 41.2405Z" fill="#6C63FF"/>
<path opacity="0.1" d="M43.3149 36.4003C43.0682 35.5673 42.8754 34.7194 42.7378 33.8618L37.2093 35.3167C37.453 36.368 37.4094 37.4652 37.0831 38.494C38.2134 38.7945 39.4076 38.7561 40.5161 38.3836C41.6246 38.0112 42.5982 37.3213 43.3149 36.4003Z" fill="black"/>
<path d="M38.7229 38.3833C42.0064 38.3833 44.6682 35.7317 44.6682 32.4609C44.6682 29.1901 42.0064 26.5386 38.7229 26.5386C35.4393 26.5386 32.7775 29.1901 32.7775 32.4609C32.7775 35.7317 35.4393 38.3833 38.7229 38.3833Z" fill="#FEB9B9"/>
<path opacity="0.1" d="M45.1898 80.1562C45.1898 80.1562 48.6317 86.9113 47.5884 88.9875L45.1898 80.1562Z" fill="black"/>
<path d="M41.8845 18.7825C43.5348 18.97 45.102 19.6747 46.7268 20.0602C47.1329 20.1859 47.5652 20.2021 47.9796 20.107C48.6102 19.9132 49.1233 19.2552 49.7775 19.2743C50.18 19.2871 50.5364 19.5597 50.8678 19.8215C51.3992 20.2267 51.8994 20.6709 52.3642 21.1504C53.4843 22.3621 54.1792 23.9934 55.201 25.3116C56.2228 26.6298 57.6801 28.1756 59.1317 27.5711C58.1442 31.4043 55.0641 33.8022 51.5647 34.0408C50.1687 34.1363 48.7384 33.847 47.3873 34.2537C47.0508 34.3912 46.6954 34.4773 46.3331 34.5092C45.5549 34.5092 44.9285 33.798 44.4432 33.1058C43.3058 31.4789 42.4059 29.6326 41.1253 28.1483C40.6977 27.6564 40.2039 27.19 39.6053 27.1006C39.0067 27.0113 38.4574 27.2965 37.9251 27.5713C37.0464 28.0249 36.1486 28.4933 35.4666 29.275C34.7847 30.0566 34.3549 31.2106 34.6371 32.2564C34.7889 32.8229 35.1354 33.334 35.1416 33.9259C35.1544 34.8714 34.3164 35.5614 34.1518 36.4813C34.1146 36.8678 34.101 37.2561 34.1111 37.6441C34.0385 38.9043 33.2102 39.9353 32.3477 40.7298C32.01 41.0364 31.6385 41.3686 31.5396 41.8435C31.4733 42.1692 31.5396 42.5118 31.4969 42.8423C31.3707 43.66 30.5519 44.0753 29.8272 44.1818C28.9804 44.3067 28.1155 44.2046 27.3216 43.8859C28.335 43.4086 28.9593 42.0503 28.7241 40.8342C28.4013 39.1475 26.6996 37.9359 26.8457 36.2196C26.9257 35.693 27.0842 35.1812 27.316 34.7013C27.6869 33.7738 27.9564 32.8093 28.1199 31.8243C28.2481 31.064 28.3103 30.2569 28.0707 29.5308C27.8569 28.8706 27.4101 28.3447 27.0316 27.7867C26.5186 27.0274 26.1136 26.2011 25.8281 25.3313C25.7246 25.0732 25.6851 24.7941 25.7131 24.5177C25.7988 24.1912 25.9813 23.898 26.2369 23.6764C27.1669 22.7027 28.1609 21.6917 29.4074 21.4127C30.0021 21.3144 30.6069 21.2915 31.2074 21.3446C32.2518 21.3772 33.2972 21.3331 34.335 21.2125C35.1901 21.1124 36.6351 21.1252 37.36 20.5736C38.0355 20.0581 38.4162 19.4108 39.2476 19.083C40.0897 18.7721 40.9949 18.669 41.8857 18.7826L41.8845 18.7825Z" fill="#2F2E41"/>
<path d="M158.787 9.64672C158.787 9.64672 140.727 8.56127 142.855 21.167C142.855 21.167 142.426 23.3954 144.459 24.406C144.459 24.406 144.491 23.4723 146.312 23.7906C146.96 23.8977 147.619 23.9292 148.275 23.8846C149.159 23.8266 150.001 23.4839 150.672 22.9081C150.672 22.9081 155.749 20.8186 157.723 12.5544C157.723 12.5544 159.183 10.7513 159.125 10.2875L156.078 11.5843C156.078 11.5843 157.12 13.7743 156.292 15.5939C156.292 15.5939 156.193 11.6626 155.608 11.7481C155.49 11.7653 154.025 12.5065 154.025 12.5065C154.025 12.5065 155.816 16.3202 154.465 19.0937C154.465 19.0937 154.977 14.3933 153.465 12.7822L151.32 14.03C151.32 14.03 153.414 17.9699 151.994 21.1854C151.994 21.1854 152.358 16.2541 150.868 14.3334L148.925 15.8438C148.925 15.8438 150.891 19.7259 149.692 22.3928C149.692 22.3928 149.536 16.6539 148.504 16.2203C148.504 16.2203 146.803 17.7159 146.544 18.3269C146.544 18.3269 147.89 21.1472 147.054 22.6342C147.054 22.6342 146.541 18.8098 146.121 18.7884C146.121 18.7884 144.427 21.3223 144.251 23.0615C144.251 23.0615 144.324 20.4783 145.711 18.5491C145.711 18.5491 144.072 18.8291 143.116 19.8857C143.116 19.8857 143.38 18.0953 146.129 17.9372C146.129 17.9372 147.53 16.0143 147.903 15.899C147.903 15.899 145.171 15.6699 143.513 16.4033C143.513 16.4033 144.971 14.7133 148.405 15.4824L150.325 13.9206C150.325 13.9206 146.726 13.4312 145.199 13.9719C145.199 13.9719 146.955 12.4763 150.842 13.566L152.931 12.3225C152.931 12.3225 149.862 11.6643 148.034 11.8951C148.034 11.8951 149.965 10.859 153.544 11.9828L155.046 11.3145C155.046 11.3145 152.798 10.8744 152.139 10.804C151.481 10.7335 151.447 10.554 151.447 10.554C152.871 10.3175 154.333 10.4795 155.67 11.022C155.67 11.022 158.84 9.84548 158.787 9.64672Z" fill="#8FD83A"/>
<path d="M134.042 2.97317C134.042 2.97317 125.891 2.48381 126.844 8.1799C126.844 8.1799 126.652 9.1863 127.569 9.6434C127.569 9.6434 127.584 9.21609 128.407 9.36349C128.7 9.41254 128.997 9.4269 129.293 9.40626C129.693 9.37989 130.073 9.22377 130.376 8.96177C130.376 8.96177 132.671 8.01742 133.563 4.28278C133.563 4.28278 134.222 3.46883 134.196 3.25938L132.819 3.84478C132.819 3.84478 133.289 4.834 132.92 5.65653C132.92 5.65653 132.875 3.88086 132.611 3.92172C132.557 3.92172 131.894 4.2654 131.894 4.2654C131.894 4.2654 132.705 5.98952 132.094 7.24166C132.094 7.24166 132.325 5.11791 131.641 4.38932L130.672 4.96211C130.672 4.96211 131.618 6.7418 130.976 8.19479C130.976 8.19479 131.142 5.96642 130.468 5.09901L129.591 5.78274C129.591 5.78274 130.479 7.53684 129.938 8.7422C129.938 8.7422 129.866 6.14838 129.4 5.95191C129.4 5.95191 128.632 6.62705 128.514 6.90485C128.514 6.90485 129.123 8.18677 128.746 8.85122C128.746 8.85122 128.514 7.12271 128.317 7.11373C128.317 7.11373 127.551 8.25933 127.472 9.03661C127.51 8.3115 127.738 7.60893 128.132 6.99841C127.69 7.08179 127.283 7.29196 126.959 7.60309C126.959 7.60309 127.079 6.79335 128.321 6.72289C128.321 6.72289 128.965 5.85339 129.123 5.79993C129.123 5.79993 127.888 5.69739 127.139 6.02904C127.139 6.02904 127.798 5.26627 129.349 5.61243L130.207 4.90732C130.207 4.90732 128.579 4.69156 127.889 4.92946C127.889 4.92946 128.683 4.25432 130.439 4.74579L131.383 4.18387C131.383 4.18387 129.995 3.88697 129.17 3.99294C129.17 3.99294 130.043 3.52496 131.66 4.03113L132.336 3.72983C132.336 3.72983 131.32 3.53107 131.021 3.499C130.722 3.46692 130.708 3.38577 130.708 3.38577C131.351 3.27908 132.012 3.35306 132.616 3.59943C132.616 3.59943 134.067 3.06214 134.042 2.97317Z" fill="#3F3D56"/>
<path d="M26.5069 123.011C26.5069 123.011 18.3565 122.521 19.3087 128.217C19.3087 128.217 19.117 129.224 20.0336 129.681C20.0336 129.681 20.0486 129.253 20.8722 129.401C21.1647 129.45 21.462 129.464 21.7579 129.444C22.158 129.417 22.5384 129.261 22.8411 128.999C22.8411 128.999 25.136 128.055 26.0283 124.32C26.0283 124.32 26.6867 123.506 26.6608 123.297L25.2838 123.882C25.2838 123.882 25.7536 124.871 25.3846 125.694C25.3846 125.694 25.3396 123.918 25.0758 123.959C25.0222 123.959 24.3594 124.303 24.3594 124.303C24.3594 124.303 25.1701 126.027 24.5589 127.279C24.5589 127.279 24.7904 125.155 24.1063 124.427L23.1368 124.999C23.1368 124.999 24.0828 126.779 23.4414 128.232C23.4414 128.232 23.6066 126.004 22.9331 125.136L22.0558 125.82C22.0558 125.82 22.9438 127.574 22.4033 128.78C22.4033 128.78 22.3305 126.186 21.8649 125.989C21.8649 125.989 21.097 126.664 20.979 126.942C20.979 126.942 21.5881 128.224 21.2107 128.889C21.2107 128.889 20.979 127.16 20.7817 127.151C20.7817 127.151 20.016 128.297 19.9366 129.074C19.975 128.349 20.2027 127.646 20.5973 127.036C20.1555 127.119 19.7477 127.329 19.4241 127.64C19.4241 127.64 19.5443 126.831 20.7861 126.76C20.7861 126.76 21.4296 125.891 21.5883 125.837C21.5883 125.837 20.353 125.735 19.6043 126.066C19.6043 126.066 20.2627 125.304 21.8135 125.65L22.6715 124.945C22.6715 124.945 21.0441 124.729 20.3541 124.967C20.3541 124.967 21.1476 124.292 22.9043 124.783L23.8482 124.221C23.8482 124.221 22.4604 123.924 21.6347 124.03C21.6347 124.03 22.5076 123.562 24.1249 124.068L24.8006 123.767C24.8006 123.767 23.7847 123.568 23.4857 123.536C23.1867 123.504 23.1725 123.423 23.1725 123.423C23.8164 123.316 24.4774 123.39 25.0814 123.637C25.0814 123.637 26.532 123.099 26.5069 123.011Z" fill="#3F3D56"/>
<defs>
<linearGradient id="paint0_linear" x1="34.3596" y1="73.3561" x2="34.3596" y2="73.3008" gradientUnits="userSpaceOnUse">
<stop stop-color="#808080" stop-opacity="0.251"/>
<stop offset="0.54" stop-color="#808080" stop-opacity="0.122"/>
<stop offset="1" stop-color="#808080" stop-opacity="0.102"/>
</linearGradient>
</defs>
</svg>
