<svg width="61" height="58" viewBox="0 0 61 58" fill="none" xmlns="http://www.w3.org/2000/svg">
<path d="M2.44087 57.6628H58.6424C59.626 57.6628 60.3987 56.9209 60.3987 55.9768V49.2326C60.3987 48.2884 59.626 47.5465 58.6424 47.5465H53.3735V23.9419H58.6424C59.626 23.9419 60.3987 23.2 60.3987 22.2558V15.5116C60.3987 14.9047 60.0475 14.2977 59.4152 14.0279L31.3144 0.539545C30.8227 0.269777 30.2606 0.269777 29.7689 0.539545L1.6681 14.0279C1.03583 14.2977 0.68457 14.9047 0.68457 15.5116V22.2558C0.68457 23.2 1.45734 23.9419 2.44087 23.9419H7.70976V47.5465H2.44087C1.45734 47.5465 0.68457 48.2884 0.68457 49.2326V55.9768C0.68457 56.9209 1.45734 57.6628 2.44087 57.6628ZM4.19717 20.5698V16.5233L30.5416 3.91164L56.8861 16.5907V20.6372H51.6172H44.592H34.0542H27.0291H16.4913H9.46606H4.19717V20.5698ZM49.8609 23.9419V47.5465H46.3483V23.9419H49.8609ZM42.8357 23.9419V47.5465H35.8105V23.9419H42.8357ZM32.2979 23.9419V47.5465H28.7853V23.9419H32.2979ZM25.2728 23.9419V47.5465H18.2476V23.9419H25.2728ZM14.735 23.9419V47.5465H11.2224V23.9419H14.735ZM4.19717 50.9186H9.46606H16.4913H27.0291H34.0542H44.592H51.6172H56.8861V54.2907H4.19717V50.9186Z" fill="white"/>
</svg>
