<svg width="1375" height="912" viewBox="0 0 375 912" fill="none" xmlns="http://www.w3.org/2000/svg">
<g clip-path="url(#clip0)">
<rect width="2610" height="912" transform="translate(-535)" fill="white"/>
<path opacity="0.9" d="M-697.472 -494.466C-967.708 -182.059 -1020.57 955.797 59.8775 1300.77C1140.32 1645.74 2557.47 1207.16 2761.19 374.023C2963.67 -459.97 2073.38 196.612 1419.02 -270.92C764.656 -738.453 -175.188 -1097.09 -697.472 -494.466Z" fill="url(#paint0_linear)"/>
<path opacity="0.2" d="M-282.235 173.438C-206.086 141.036 -216.49 -0.182554 -37.1008 16.0996C77.6752 26.7941 229.491 -16.9313 267.116 -210.814C304.74 -404.696 199.466 -567.836 15.9756 -708.985C-167.515 -850.134 -27.2671 -489.74 -266.548 -405.647C-505.829 -321.555 -537.055 -172.336 -484.52 -12.0255C-431.984 148.285 -367.421 209.75 -282.235 173.438Z" fill="url(#paint1_linear)"/>
<circle opacity="0.1" cx="376.5" cy="399.5" r="51.5" fill="url(#paint2_linear)"/>
<path opacity="0.2" d="M159.459 903.566C207.093 842.131 250.152 593.477 109.654 488.787C-30.8441 384.097 -243.047 442.608 -297.684 620.261C-352.172 798.136 -206.92 677.633 -129.933 797.871C-52.9458 918.109 67.4335 1022.05 159.459 903.566Z" fill="url(#paint3_linear)"/>
<path opacity="0.2" d="M278.003 168.954C242.532 169.708 166.931 231.821 207.104 320.543C247.277 409.264 356.79 474.353 421.64 439.392C486.472 404.302 393.375 385.34 385.535 316.725C377.696 248.109 346.485 167.563 278.003 168.954Z" fill="url(#paint4_linear)"/>
</g>
<defs>
<linearGradient id="paint0_linear" x1="-1121.12" y1="1298.47" x2="4640.44" y2="-1303.67" gradientUnits="userSpaceOnUse">
<stop stop-color="#000064"/>
<stop offset="1" stop-color="#00D1FF" stop-opacity="0.44"/>
</linearGradient>
<linearGradient id="paint1_linear" x1="131.878" y1="89.0767" x2="-291.231" y2="-415.496" gradientUnits="userSpaceOnUse">
<stop stop-color="#6D63FF"/>
<stop offset="1" stop-color="#C6F5FF"/>
</linearGradient>
<linearGradient id="paint2_linear" x1="376" y1="354" x2="376" y2="430.5" gradientUnits="userSpaceOnUse">
<stop stop-color="#DFEDFF"/>
<stop offset="1" stop-color="#DFEDFF" stop-opacity="0"/>
</linearGradient>
<linearGradient id="paint3_linear" x1="-459.939" y1="589.928" x2="174.624" y2="726.841" gradientUnits="userSpaceOnUse">
<stop stop-color="#6C63FF"/>
<stop offset="1" stop-color="#68E5FF"/>
</linearGradient>
<linearGradient id="paint4_linear" x1="488.451" y1="513.042" x2="261.192" y2="197.637" gradientUnits="userSpaceOnUse">
<stop stop-color="#6C63FF"/>
<stop offset="1" stop-color="#68E5FF"/>
</linearGradient>
<clipPath id="clip0">
<rect width="2610" height="912" fill="white" transform="translate(-535)"/>
</clipPath>
</defs>
</svg>
