<svg width="1440" height="582" viewBox="0 0 1440 582" fill="none" xmlns="http://www.w3.org/2000/svg">
<path opacity="0.4" d="M1389.92 536.083C1299.56 442.757 1251.75 284.484 1319.84 5.83256e-05L1440.63 8.15877e-05L1440.63 581.018C1425.02 569.885 1408.13 554.889 1389.92 536.083Z" fill="url(#paint0_linear)"/>
<path opacity="0.4" d="M572.122 108.512C748.231 -79.296 870.445 82.2298 982.317 44.723C1012.2 34.7245 1035.58 19.859 1052.55 9.15527e-05L2.94604e-06 9.426e-05L1.44218e-06 126.111C10.5815 135.572 21.6378 144.766 33.1796 153.685C256.378 326.161 459.706 228.972 572.122 108.512Z" fill="url(#paint1_linear)"/>
<defs>
<linearGradient id="paint0_linear" x1="1501.63" y1="775.5" x2="1372.63" y2="44" gradientUnits="userSpaceOnUse">
<stop stop-color="#6C63FF"/>
<stop offset="1" stop-color="#C6F5FF"/>
</linearGradient>
<linearGradient id="paint1_linear" x1="-132" y1="449" x2="569.5" y2="-289" gradientUnits="userSpaceOnUse">
<stop stop-color="#6C63FF"/>
<stop offset="1" stop-color="#C6F5FF"/>
</linearGradient>
</defs>
</svg>
