<svg width="56" height="42" viewBox="0 0 56 42" fill="none" xmlns="http://www.w3.org/2000/svg">
<path d="M34.1251 11.6666V13.0903C31.8379 13.4509 30.3051 15.799 30.6141 18.2063C30.8613 20.1458 32.2746 21.689 34.1251 22.0416V27.6672C32.9529 27.3193 32.1922 26.2236 32.1922 24.9333C32.1922 24.4429 31.8654 24.0833 31.4029 24.0833C30.9404 24.0833 30.6137 24.4429 30.6137 24.9333C30.6137 27.139 32.0862 29.0849 34.1251 29.4423V30.3334C34.1251 30.5436 34.19 30.7232 34.3078 30.8507C34.426 30.9785 34.5938 31.0501 34.7912 31.0501C34.9886 31.0501 35.1564 30.9785 35.2745 30.8507C35.3923 30.7232 35.4572 30.5436 35.4572 30.3334V29.443C37.7444 29.0824 39.2772 26.7344 38.9683 24.327C38.7211 22.3875 37.3078 20.8443 35.4572 20.4917V14.8661C36.6295 15.214 37.3902 16.3097 37.3902 17.5999C37.3902 18.0904 37.7169 18.45 38.1794 18.45C38.6419 18.45 38.9687 18.0904 38.9687 17.5999C38.9687 15.3943 37.4962 13.4484 35.4572 13.091V11.6666C35.4572 11.4563 35.3923 11.2768 35.2745 11.1493C35.1564 11.0214 34.9886 10.9499 34.7912 10.9499C34.5938 10.9499 34.426 11.0214 34.3078 11.1493C34.19 11.2768 34.1251 11.4563 34.1251 11.6666ZM32.1922 17.5333C32.1922 16.2456 33.0095 15.1497 34.1251 14.8004V20.2705C32.9547 19.9862 32.1922 18.8913 32.1922 17.5333ZM37.3902 24.9333C37.3902 26.221 36.5728 27.3169 35.4572 27.6662V22.2004C36.5728 22.5498 37.3902 23.6457 37.3902 24.9333Z" fill="white" stroke="white" stroke-width="0.1"/>
<path d="M34.7913 41.05C46.3064 41.05 55.6746 32.0594 55.6746 21C55.6746 9.94058 46.3064 0.950003 34.7913 0.950004C23.2762 0.950004 13.908 9.94058 13.908 21C13.908 32.0594 23.2762 41.05 34.7913 41.05ZM34.7913 2.64469C45.3553 2.64469 53.9134 10.8634 53.9134 21C53.9134 31.1366 45.3553 39.3553 34.7913 39.3553C24.2273 39.3553 15.6691 31.1366 15.6691 21C15.6691 10.8634 24.2273 2.64469 34.7913 2.64469Z" fill="white" stroke="white" stroke-width="0.1"/>
<path d="M34.792 36.05C43.4383 36.05 50.4669 29.3054 50.4669 20.9999C50.4669 12.6945 43.4383 5.9499 34.792 5.9499C26.1456 5.9499 19.117 12.6945 19.117 20.9999C19.117 29.3054 26.1456 36.05 34.792 36.05ZM34.792 7.60163C42.5114 7.60163 48.7506 13.5941 48.7506 20.9999C48.7506 28.4058 42.5114 34.3983 34.792 34.3983C27.0725 34.3983 20.8334 28.4058 20.8334 20.9999C20.8334 13.5941 27.0725 7.60163 34.792 7.60163Z" fill="white" stroke="white" stroke-width="0.1"/>
<path d="M6.69492 18.95L1.30508 18.95C1.23896 18.95 1.18462 18.9891 1.14266 19.0438C1.10062 19.0986 1.06587 19.1752 1.03798 19.2667C0.982026 19.4501 0.95 19.7054 0.95 20C0.95 20.2946 0.982026 20.5499 1.03798 20.7333C1.06587 20.8248 1.10062 20.9014 1.14266 20.9562C1.18462 21.0109 1.23896 21.05 1.30508 21.05L6.69492 21.05C6.76104 21.05 6.81538 21.0109 6.85734 20.9562C6.89938 20.9014 6.93413 20.8248 6.96202 20.7333C7.01797 20.5499 7.05 20.2946 7.05 20C7.05 19.7045 7.01142 19.4491 6.95224 19.2659C6.92274 19.1746 6.88731 19.0986 6.84709 19.0444C6.808 18.9918 6.75689 18.95 6.69492 18.95Z" fill="white" stroke="white" stroke-width="0.1"/>
<path d="M7.66851 7.95L3.33149 7.95C3.26328 7.95 3.20557 7.98716 3.1597 8.04221C3.11403 8.09703 3.07617 8.17381 3.04577 8.26552C2.98483 8.44936 2.95 8.70512 2.95 9C2.95 9.29489 2.98483 9.55064 3.04577 9.73448C3.07617 9.82619 3.11403 9.90297 3.1597 9.95779C3.20557 10.0128 3.26328 10.05 3.33149 10.05L7.66851 10.05C7.73672 10.05 7.79443 10.0128 7.8403 9.95779C7.88597 9.90297 7.92383 9.82619 7.95423 9.73448C8.01517 9.55064 8.05 9.29488 8.05 9C8.05 8.74609 8.01501 8.49089 7.95448 8.29756C7.92431 8.20119 7.8869 8.11726 7.84219 8.05635C7.79816 7.99636 7.74024 7.95 7.66851 7.95Z" fill="white" stroke="white" stroke-width="0.1"/>
<path d="M7.66851 29.95L3.33149 29.95C3.26328 29.95 3.20557 29.9872 3.1597 30.0422C3.11403 30.097 3.07617 30.1738 3.04577 30.2655C2.98483 30.4494 2.95 30.7051 2.95 31C2.95 31.2949 2.98483 31.5506 3.04577 31.7345C3.07617 31.8262 3.11403 31.903 3.1597 31.9578C3.20557 32.0128 3.26328 32.05 3.33149 32.05L7.66851 32.05C7.73672 32.05 7.79443 32.0128 7.8403 31.9578C7.88597 31.903 7.92383 31.8262 7.95423 31.7345C8.01517 31.5506 8.05 31.2949 8.05 31C8.05 30.7051 8.01517 30.4494 7.95423 30.2655C7.92383 30.1738 7.88597 30.097 7.8403 30.0422C7.79443 29.9872 7.73672 29.95 7.66851 29.95Z" fill="white" stroke="white" stroke-width="0.1"/>
</svg>
