<svg width="188" height="122" viewBox="0 0 188 122" fill="none" xmlns="http://www.w3.org/2000/svg">
<path d="M158.366 121.639L153 105.421C153 105.421 158.903 111.332 158.903 116.183L157.843 104.966C157.843 104.966 160.87 109.059 160.567 115.273C160.265 121.488 158.366 121.639 158.366 121.639Z" fill="#E6E6E6"/>
<path d="M50.1311 112.872L44.894 97.0434C44.894 97.0434 50.6545 102.813 50.6545 107.546L49.6206 96.5996C49.6206 96.5996 52.5746 100.594 52.2792 106.659C51.9838 112.724 50.1311 112.872 50.1311 112.872Z" fill="#E6E6E6"/>
<path d="M137.872 114.176C137.881 124.588 117.261 121.385 92.0175 121.407C66.774 121.429 46.466 124.667 46.457 114.255C46.4481 103.843 67.0604 101.561 92.3039 101.539C117.547 101.517 137.863 103.764 137.872 114.176Z" fill="#E6E6E6"/>
<path d="M120.18 100.114H116.88L115.31 87.365H120.18V100.114Z" fill="#A0616A"/>
<path d="M114.156 99.1699H120.888V103.183H110.516V102.816C110.516 101.849 110.899 100.922 111.582 100.238C112.265 99.5541 113.191 99.1699 114.156 99.1699Z" fill="#2F2E41"/>
<path d="M144.438 118.931H141.138L139.568 106.182H144.438V118.931Z" fill="#A0616A"/>
<path d="M138.414 117.986H145.146V122H134.773V121.633C134.773 120.666 135.157 119.738 135.84 119.054C136.523 118.37 137.449 117.986 138.414 117.986Z" fill="#2F2E41"/>
<path d="M159.661 81.0565C159.889 80.7793 160.054 80.4554 160.144 80.1076C160.233 79.7598 160.246 79.3966 160.18 79.0434C160.114 78.6903 159.972 78.3558 159.764 78.0637C159.555 77.7715 159.285 77.5288 158.972 77.3524L151.307 46.0806L146.406 48.1924L155.523 78.4297C155.262 78.9751 155.21 79.5974 155.377 80.1787C155.544 80.76 155.917 81.2599 156.427 81.5837C156.937 81.9075 157.548 82.0326 158.144 81.9355C158.74 81.8383 159.28 81.5255 159.661 81.0565Z" fill="#A0616A"/>
<path d="M153.683 17.8549C153.409 17.5685 153.076 17.3456 152.708 17.202C152.339 17.0584 151.943 16.9976 151.548 17.0237C151.153 17.0499 150.769 17.1625 150.422 17.3535C150.075 17.5445 149.775 17.8094 149.541 18.1294L137.677 19.4935L139.482 24.0765L150.272 22.0541C150.834 22.4113 151.508 22.5493 152.166 22.4421C152.824 22.3348 153.419 21.9896 153.84 21.472C154.26 20.9544 154.476 20.3003 154.447 19.6336C154.419 18.967 154.147 18.3341 153.683 17.8549Z" fill="#A0616A"/>
<path d="M134.132 77.8133L139.309 116.726L145.752 115.398C145.752 115.398 144.805 87.0583 148.027 83.6419C151.248 80.2255 143.883 74.2405 143.883 74.2405L134.132 77.8133Z" fill="#2F2E41"/>
<path d="M136.273 67.0951L133.894 70.6679C133.894 70.6679 115.582 63.0462 115.582 75.1934C115.582 87.3406 114.534 95.5843 114.155 96.1536C113.776 96.723 118.54 98.2005 120.814 97.8209C120.814 97.8209 123.62 78.2377 123.43 77.0989C123.43 77.0989 141.394 85.9196 144.805 85.1604C148.216 84.4013 149.022 81.7137 149.591 80.1953C150.159 78.6769 149.353 66.6188 149.353 66.6188L137.982 63.1436L136.273 67.0951Z" fill="#2F2E41"/>
<path d="M136.593 45.6436L135.915 44.8289C135.915 44.8289 128.323 27.7205 131.306 23.104C134.289 18.4874 147.304 17.8085 147.71 18.0801C148.117 18.3517 146.739 21.8774 147.688 23.5068C147.688 23.5068 137.606 25.696 136.928 25.9676C136.25 26.2391 142.152 36.2747 142.152 36.2747L141.474 42.3848L136.593 45.6436Z" fill="#6C63FF"/>
<path d="M149.88 37.2261C149.88 37.2261 142.83 38.0408 142.559 38.0408C142.287 38.0408 142.152 36.2756 142.152 36.2756L135.915 44.8298C135.915 44.8298 132.843 69.6465 133.656 69.2392C134.47 68.8318 149.473 71.1712 149.608 70.085C149.744 68.9987 149.473 63.5675 149.88 63.296C150.286 63.0244 156.929 46.1876 156.929 46.1876C156.929 46.1876 156.252 42.6573 153.947 41.4353C151.642 40.2133 149.88 37.2261 149.88 37.2261Z" fill="#6C63FF"/>
<path d="M154.76 43.8792L156.929 46.1874C156.929 46.1874 160.152 72.7116 158.39 73.5263C156.628 74.341 153.158 74.2408 153.158 74.2408L149.744 61.6664L154.76 43.8792Z" fill="#6C63FF"/>
<path d="M143.105 35.5457C146.551 35.5457 149.345 32.7477 149.345 29.2961C149.345 25.8445 146.551 23.0464 143.105 23.0464C139.659 23.0464 136.865 25.8445 136.865 29.2961C136.865 32.7477 139.659 35.5457 143.105 35.5457Z" fill="#A0616A"/>
<path d="M141.641 30.2711C141.556 28.9743 139.923 28.9299 138.625 28.9176C137.328 28.9053 135.777 28.9517 135.043 27.8802C134.557 27.1721 134.65 26.189 135.051 25.4298C135.452 24.6706 136.111 24.0867 136.76 23.5249C138.434 22.0747 140.16 20.6359 142.171 19.7076C144.181 18.7794 146.537 18.4043 148.622 19.1495C151.184 20.0648 154.646 24.7768 154.945 27.484C155.244 30.1911 154.164 32.9509 152.343 34.9739C150.522 36.9968 146.354 36.1806 143.731 36.9003C145.326 34.64 144.275 30.533 141.72 29.4775L141.641 30.2711Z" fill="#2F2E41"/>
<path d="M86.0256 111.111C94.299 111.111 101.006 104.394 101.006 96.1083C101.006 87.8223 94.299 81.1052 86.0256 81.1052C77.7522 81.1052 71.0453 87.8223 71.0453 96.1083C71.0453 104.394 77.7522 111.111 86.0256 111.111Z" fill="#E96B6B"/>
<path d="M76.0216 80.0393C73.9454 80.0394 71.9137 79.4369 70.1724 78.3046C68.4311 77.1723 67.0548 75.5587 66.2101 73.6593L42.4392 20.0459C41.6518 18.27 41.2354 16.3515 41.2155 14.4084C41.1956 12.4654 41.5727 10.5387 42.3236 8.74701C43.0745 6.95527 44.1834 5.33627 45.582 3.98952C46.9807 2.64276 48.6396 1.59671 50.4567 0.915662C52.2739 0.234611 54.2109 -0.0670512 56.1487 0.0292196C58.0865 0.12549 59.9842 0.617659 61.7252 1.47547C63.4661 2.33329 65.0135 3.53863 66.2722 5.0174C67.5309 6.49617 68.4743 8.21712 69.0445 10.0745L86.2575 66.146C86.7503 67.751 86.8604 69.4493 86.5789 71.1046C86.2975 72.7599 85.6323 74.326 84.6369 75.6771C83.6414 77.0283 82.3434 78.1267 80.8472 78.8843C79.351 79.6419 77.6982 80.0375 76.0216 80.0393Z" fill="#E96B6B"/>
</svg>
