<svg width="58" height="56" viewBox="0 0 58 56" fill="none" xmlns="http://www.w3.org/2000/svg">
<path d="M44.8476 10.0605H47.4661V12.5739C47.4661 13.2406 47.7419 13.8799 48.233 14.3512C48.7241 14.8226 49.3901 15.0874 50.0845 15.0874C50.779 15.0874 51.445 14.8226 51.9361 14.3512C52.4271 13.8799 52.703 13.2406 52.703 12.5739V10.0605H55.3215C56.0159 10.0605 56.682 9.79571 57.173 9.32435C57.6641 8.85299 57.94 8.21369 57.94 7.54709C57.94 6.88049 57.6641 6.24119 57.173 5.76983C56.682 5.29847 56.0159 5.03366 55.3215 5.03366H52.703V2.52024C52.703 1.85363 52.4271 1.21433 51.9361 0.742973C51.445 0.271613 50.779 0.00680659 50.0845 0.00680659C49.3901 0.00680659 48.7241 0.271613 48.233 0.742973C47.7419 1.21433 47.4661 1.85363 47.4661 2.52024V5.03366H44.8476C44.1531 5.03366 43.4871 5.29847 42.996 5.76983C42.505 6.24119 42.2291 6.88049 42.2291 7.54709C42.2291 8.21369 42.505 8.85299 42.996 9.32435C43.4871 9.79571 44.1531 10.0605 44.8476 10.0605ZM16.0444 15.0874V40.2217C16.0444 40.8883 16.3202 41.5276 16.8113 41.9989C17.3024 42.4703 17.9684 42.7351 18.6628 42.7351C19.3573 42.7351 20.0233 42.4703 20.5144 41.9989C21.0054 41.5276 21.2813 40.8883 21.2813 40.2217V15.0874C21.2813 14.4208 21.0054 13.7815 20.5144 13.3101C20.0233 12.8388 19.3573 12.5739 18.6628 12.5739C17.9684 12.5739 17.3024 12.8388 16.8113 13.3101C16.3202 13.7815 16.0444 14.4208 16.0444 15.0874ZM54.2741 20.1142C53.9371 20.1802 53.6169 20.3092 53.3318 20.494C53.0468 20.6787 52.8025 20.9156 52.6128 21.191C52.4231 21.4664 52.2918 21.775 52.2265 22.0992C52.1611 22.4233 52.1628 22.7566 52.2317 23.0801C53.254 27.8461 52.6481 32.8014 50.5038 37.2106C48.3595 41.6199 44.7911 45.2478 40.3284 47.556C35.8658 49.8642 30.7466 50.7296 25.7309 50.0237C20.7152 49.3178 16.0703 47.0783 12.4858 43.6375C8.9012 40.1967 6.56806 35.7382 5.83266 30.9237C5.09725 26.1092 5.9988 21.1955 8.40347 16.9118C10.8081 12.6281 14.5877 9.20293 19.1812 7.14465C23.7747 5.08638 28.9372 4.50474 33.9024 5.48608C34.5968 5.6194 35.318 5.48245 35.9073 5.10537C36.4966 4.72828 36.9056 4.14194 37.0445 3.47534C37.1834 2.80874 37.0408 2.11647 36.6479 1.55084C36.2551 0.985211 35.6442 0.592544 34.9497 0.459224C33.0335 0.116521 31.0855 -0.0350908 29.1367 0.00680659C23.44 0.00680659 17.8712 1.62832 13.1345 4.66629C8.39785 7.70426 4.70607 12.0222 2.52602 17.0742C0.345976 22.1262 -0.224424 27.6852 0.886955 33.0483C1.99833 38.4115 4.74158 43.3378 8.76978 47.2044C12.798 51.071 17.9302 53.7042 23.5175 54.771C29.1048 55.8378 34.8962 55.2903 40.1593 53.1977C45.4224 51.1051 49.9208 47.5614 53.0857 43.0148C56.2507 38.4681 57.94 33.1227 57.94 27.6545C57.9455 25.7973 57.7525 23.9444 57.3639 22.125C57.3012 21.797 57.1711 21.4842 56.9812 21.2049C56.7913 20.9257 56.5454 20.6855 56.2578 20.4983C55.9702 20.3112 55.6467 20.1808 55.3062 20.1149C54.9656 20.049 54.6148 20.0487 54.2741 20.1142ZM26.5183 20.1142V22.6277C26.5298 24.4877 27.2572 26.2781 28.5607 27.6545C27.2572 29.031 26.5298 30.8213 26.5183 32.6814V35.1948C26.5183 37.1946 27.3459 39.1125 28.8191 40.5266C30.2922 41.9407 32.2903 42.7351 34.3737 42.7351H36.9922C39.0755 42.7351 41.0736 41.9407 42.5468 40.5266C44.02 39.1125 44.8476 37.1946 44.8476 35.1948V32.6814C44.836 30.8213 44.1086 29.031 42.8052 27.6545C44.1086 26.2781 44.836 24.4877 44.8476 22.6277V20.1142C44.8476 18.1144 44.02 16.1965 42.5468 14.7824C41.0736 13.3684 39.0755 12.5739 36.9922 12.5739H34.3737C32.2903 12.5739 30.2922 13.3684 28.8191 14.7824C27.3459 16.1965 26.5183 18.1144 26.5183 20.1142ZM39.6106 35.1948C39.6106 35.8614 39.3348 36.5007 38.8437 36.9721C38.3526 37.4434 37.6866 37.7082 36.9922 37.7082H34.3737C33.6792 37.7082 33.0132 37.4434 32.5221 36.9721C32.0311 36.5007 31.7552 35.8614 31.7552 35.1948V32.6814C31.7552 32.0148 32.0311 31.3755 32.5221 30.9041C33.0132 30.4328 33.6792 30.1679 34.3737 30.1679H36.9922C37.6866 30.1679 38.3526 30.4328 38.8437 30.9041C39.3348 31.3755 39.6106 32.0148 39.6106 32.6814V35.1948ZM39.6106 20.1142V22.6277C39.6106 23.2943 39.3348 23.9336 38.8437 24.4049C38.3526 24.8763 37.6866 25.1411 36.9922 25.1411H34.3737C33.6792 25.1411 33.0132 24.8763 32.5221 24.4049C32.0311 23.9336 31.7552 23.2943 31.7552 22.6277V20.1142C31.7552 19.4476 32.0311 18.8083 32.5221 18.337C33.0132 17.8656 33.6792 17.6008 34.3737 17.6008H36.9922C37.6866 17.6008 38.3526 17.8656 38.8437 18.337C39.3348 18.8083 39.6106 19.4476 39.6106 20.1142Z" fill="white"/>
</svg>
