<svg width="63" height="63" viewBox="0 0 63 63" fill="none" xmlns="http://www.w3.org/2000/svg">
<path d="M62.8083 31.7229C62.8083 31.5838 62.8083 31.4446 62.8083 31.3055C62.8083 22.7487 59.3299 15.0266 53.7645 9.32209C53.6949 9.18295 53.5558 9.11338 53.4862 9.04381C47.8512 3.47839 40.0596 0 31.5028 0C22.9459 0 15.1543 3.47839 9.51935 9.04381C9.44978 9.11338 9.38022 9.18295 9.24108 9.32209C3.67566 14.9571 0.197266 22.7487 0.197266 31.3055C0.197266 31.4446 0.197266 31.5838 0.197266 31.7229V31.7925C0.197266 31.8621 0.197266 31.9316 0.197266 31.9316C0.405969 40.2798 3.81479 47.7235 9.24108 53.2194C9.31065 53.3585 9.44978 53.4281 9.51935 53.4976C15.1543 59.0631 22.9459 62.5415 31.5028 62.5415C40.0596 62.5415 47.8512 59.0631 53.4862 53.4976C53.6253 53.4281 53.6949 53.2889 53.7645 53.2194C59.1908 47.7235 62.5996 40.2798 62.7387 32.0012C62.7387 31.9316 62.7387 31.8621 62.7387 31.7925C62.8083 31.7925 62.8083 31.7925 62.8083 31.7229ZM26.9113 3.20012C25.6591 4.3132 24.2677 5.77413 22.8764 7.58289C21.6937 9.04381 20.5111 10.9221 19.398 13.0787C17.0327 12.3135 14.8065 11.27 12.7195 9.9482C16.6153 6.46981 21.485 4.1045 26.9113 3.20012ZM10.5629 12.0352C12.9282 13.5657 15.4326 14.7484 18.0762 15.7223C16.4066 19.6877 15.1543 24.627 15.0152 30.4707H3.04955C3.25825 23.3052 6.11053 16.905 10.5629 12.0352ZM3.11911 33.2534H15.0848C15.2935 38.6101 16.5457 43.2016 18.1458 46.8887C15.5022 47.7931 12.9977 49.0453 10.6324 50.5758C6.31923 45.9843 3.53652 39.9319 3.11911 33.2534ZM12.7195 52.6628C14.8065 51.4106 17.0327 50.3671 19.398 49.5323C20.5111 51.6889 21.7633 53.4976 22.8764 55.0281C24.2677 56.8369 25.6591 58.2978 26.9113 59.4109C21.485 58.5065 16.6153 56.1412 12.7195 52.6628ZM30.1114 58.3674C28.7201 57.2543 26.9113 55.5151 25.033 53.1498C23.9199 51.7584 22.9459 50.228 22.1111 48.6975C24.6156 48.0714 27.3287 47.7235 30.0419 47.5844V58.3674H30.1114ZM30.1114 44.7321C26.9113 44.8017 23.7808 45.2886 20.8589 46.0539C19.1197 42.1581 18.1458 37.8449 17.9371 33.2534H30.1114V44.7321ZM30.1114 30.4011H17.8675C17.9371 25.3923 18.9806 20.7312 20.7893 16.4876C23.7112 17.2528 26.8417 17.7398 30.0419 17.8094L30.1114 30.4011ZM30.1114 15.0266C27.3287 14.9571 24.6851 14.5397 22.1807 13.9136C23.0155 12.3831 23.9895 10.8526 25.1025 9.46122C26.9113 7.09592 28.7896 5.35672 30.181 4.24364L30.1114 15.0266ZM50.2861 9.9482C48.199 11.2004 45.9729 12.2439 43.6076 13.0787C42.4945 10.9221 41.2423 9.11338 40.1292 7.58289C38.7378 5.77413 37.3465 4.3132 36.0942 3.20012C41.5205 4.1045 46.3903 6.46981 50.2861 9.9482ZM32.8941 4.17407C34.2159 5.28715 36.0247 6.95678 37.903 9.32209C38.877 10.5743 39.9205 12.1048 40.8944 13.9136C38.39 14.5397 35.6768 14.8875 32.9637 15.0266V4.17407H32.8941ZM32.8941 17.8789C36.0942 17.8094 39.1552 17.3224 42.1466 16.5571C43.7467 20.2442 44.9989 24.9053 45.0685 30.4707H32.8941V17.8789ZM32.8941 33.2534H45.0685C44.8598 37.8449 43.8858 42.1581 42.1466 46.0539C39.2248 45.2886 36.0942 44.8017 32.8941 44.7321V33.2534ZM32.8941 58.3674V47.5844C35.6768 47.6539 38.3204 48.0714 40.8249 48.6975C39.99 50.228 39.0161 51.7584 37.903 53.1498C36.1638 55.5847 34.2855 57.2543 32.8941 58.3674ZM36.0942 59.4109C37.3465 58.2978 38.7378 56.8369 40.1292 55.0281C41.3118 53.5672 42.4945 51.6889 43.6076 49.5323C45.9729 50.2975 48.199 51.341 50.2861 52.6628C46.3903 56.1412 41.5205 58.5065 36.0942 59.4109ZM52.4427 50.5758C50.0774 49.0453 47.5729 47.8627 44.9294 46.8887C46.5294 43.132 47.7121 38.6101 47.9903 33.2534H59.956C59.469 39.9319 56.6863 45.9843 52.4427 50.5758ZM47.9208 30.4011C47.7816 24.5574 46.5294 19.6181 44.8598 15.6528C47.5034 14.7484 50.0078 13.4962 52.3731 11.9657C56.895 16.8354 59.6777 23.3052 59.8864 30.4011H47.9208Z" fill="white"/>
</svg>
