<svg width="58" height="58" viewBox="0 0 58 58" fill="none" xmlns="http://www.w3.org/2000/svg">
<path d="M50.9394 0.121826L13.4521 0.243327C10.007 0.243327 7.20424 3.15935 7.20424 6.74363V42.8294H1.65705C0.839571 42.8294 0.197266 43.4977 0.197266 44.3482V48.1147C0.197266 51.7597 3.00005 54.6757 6.44515 54.6757H34.8818C35.6992 54.6757 36.3415 54.0075 36.3415 53.157C36.3415 52.3065 35.6992 51.6382 34.8818 51.6382H6.44515C4.63501 51.6382 3.11684 50.0587 3.11684 48.1147V45.8669H34.9402C35.7576 45.8669 36.3999 45.1987 36.3999 44.3482C36.3999 43.4977 35.7576 42.8294 34.9402 42.8294H10.1238V6.74363C10.1238 4.79961 11.642 3.28085 13.4521 3.28085L45.5674 3.15935C44.8667 4.25286 44.5163 5.52862 44.5163 6.86513V15.1272C44.5163 15.9777 45.1587 16.646 45.9761 16.646C46.7936 16.646 47.4359 15.9777 47.4359 15.1272V6.86513C47.4359 4.79961 49.0125 3.15935 50.9978 3.15935C52.9831 3.15935 54.5597 4.86036 54.5597 6.86513V8.86989H51.3481C50.5307 8.86989 49.8884 9.53815 49.8884 10.3887C49.8884 11.2392 50.5307 11.9074 51.3481 11.9074H56.0195C56.8369 11.9074 57.4792 11.2392 57.4792 10.3887V6.86513C57.4208 3.15935 54.5013 0.121826 50.9394 0.121826Z" fill="white"/>
<path d="M37.0247 36.8613C37.5927 37.116 37.9902 37.6254 38.1038 38.2622C38.3878 39.7904 39.3533 41.1276 40.6028 41.8281C41.9659 42.5922 43.5562 42.5922 44.9193 41.8281C45.4872 41.5097 46.1688 41.5097 46.7367 41.8281C48.0998 42.5922 49.6901 42.5922 51.0532 41.8281C52.3595 41.1276 53.2682 39.8541 53.5522 38.2622C53.6658 37.6254 54.0633 37.116 54.6313 36.8613C55.9944 36.2245 57.0167 34.8873 57.3574 33.2317C57.6982 31.6397 57.3007 29.9841 56.3351 28.7743C55.9944 28.3285 55.824 27.6918 55.9944 27.1187C56.3351 25.5904 56.0512 23.9348 55.1992 22.7249C54.2337 21.3877 52.8138 20.6236 51.2803 20.6873C50.6556 20.7509 50.0876 20.4326 49.6901 19.8595C47.9862 17.5034 44.9193 17.185 42.8178 19.0953C42.5339 19.35 42.3067 19.6048 42.1363 19.8595C41.7387 20.3689 41.1708 20.6873 40.546 20.6873C39.0126 20.6236 37.5927 21.3877 36.6272 22.7249C35.7184 23.9348 35.4344 25.5904 35.832 27.1187C35.9456 27.6918 35.832 28.3922 35.4345 28.8379C34.4689 30.0478 34.0714 31.7034 34.4121 33.2954C34.6961 34.8873 35.6616 36.2245 37.0247 36.8613ZM37.4791 30.9393C38.5014 29.6658 38.8422 27.9465 38.4446 26.2909C38.331 25.7178 38.4446 25.1447 38.7286 24.6989C39.1261 24.1258 39.6941 23.8711 40.3188 23.8711C41.7955 23.9348 43.2722 23.1707 44.1809 21.8335C44.9193 20.8783 46.1688 20.7509 47.0207 21.5787C47.1343 21.6424 47.1911 21.7698 47.2479 21.8335C48.2134 23.107 49.6333 23.8711 51.11 23.8711C51.7347 23.8711 52.3595 24.1258 52.7002 24.6989C53.041 25.1447 53.1546 25.7814 52.9842 26.2909C52.5866 27.9465 52.9842 29.6658 53.9497 30.9393C54.2905 31.385 54.4609 31.9581 54.3473 32.5949C54.2337 33.2317 53.8361 33.7411 53.2682 33.9958C51.9051 34.6326 50.8828 36.0335 50.542 37.6891C50.4284 38.2622 50.0309 38.7716 49.5765 39.0263C49.0085 39.3447 48.327 39.3447 47.759 39.0263C46.3959 38.2622 44.8057 38.2622 43.4426 39.0263C42.8746 39.3447 42.1931 39.3447 41.6251 39.0263C41.114 38.7716 40.7732 38.2622 40.6596 37.6891C40.3188 36.0335 39.2965 34.6962 37.9334 33.9958C37.4223 33.7411 37.0247 33.2317 36.8543 32.5949C36.9679 32.0218 37.1383 31.385 37.4791 30.9393Z" fill="white"/>
<path d="M41.3988 43.764C40.4749 43.764 39.749 44.4819 39.749 45.3955V55.7716C39.749 56.6853 40.4749 57.4031 41.3988 57.4031C41.7288 57.4031 42.1248 57.2726 42.3887 57.0768L45.8864 54.4012L49.384 57.0768C50.1099 57.5989 51.1658 57.4684 51.6937 56.7505C51.8917 56.4895 52.0237 56.0979 52.0237 55.7716V45.526C52.0237 44.6124 51.2978 43.8946 50.3739 43.8946C49.45 43.8946 48.7241 44.6124 48.7241 45.526V52.5087L46.8763 51.073C46.2823 50.6162 45.4244 50.6162 44.8305 51.073L42.9827 52.5087V45.3955C43.0487 44.5471 42.3227 43.8293 41.3988 43.764Z" fill="white"/>
<path d="M16.7156 13.7588H38.2343C39.0829 13.7588 39.7497 13.1589 39.7497 12.3955C39.7497 11.632 39.0829 11.0322 38.2343 11.0322H16.7156C15.867 11.0322 15.2002 11.632 15.2002 12.3955C15.2002 13.1589 15.867 13.7588 16.7156 13.7588Z" fill="white"/>
<path d="M34.2942 19.216C34.2942 18.452 33.6167 17.8518 32.7543 17.8518H16.74C15.8777 17.8518 15.2002 18.452 15.2002 19.216C15.2002 19.9799 15.8777 20.5801 16.74 20.5801H32.7543C33.6167 20.5801 34.2942 19.9799 34.2942 19.216Z" fill="white"/>
<path d="M28.8388 27.3981C28.8388 26.6346 28.1893 26.0348 27.3628 26.0348H16.6762C15.8497 26.0348 15.2002 26.6346 15.2002 27.3981C15.2002 28.1616 15.8497 28.7614 16.6762 28.7614H27.3628C28.1893 28.7614 28.8388 28.1616 28.8388 27.3981Z" fill="white"/>
<path d="M27.1661 34.2168H16.8085C15.9079 34.2168 15.2002 34.817 15.2002 35.5809C15.2002 36.3449 15.9079 36.9451 16.8085 36.9451H27.2305C28.1311 36.9451 28.8388 36.3449 28.8388 35.5809C28.8388 34.817 28.0668 34.2168 27.1661 34.2168Z" fill="white"/>
</svg>
