<svg width="50" height="76" viewBox="0 0 50 76" fill="none" xmlns="http://www.w3.org/2000/svg">
<path d="M39.625 4.75C40.9179 4.75 42.1579 5.25044 43.0721 6.14124C43.9864 7.03204 44.5 8.24022 44.5 9.5V66.5C44.5 67.7598 43.9864 68.968 43.0721 69.8588C42.1579 70.7496 40.9179 71.25 39.625 71.25H10.375C9.08207 71.25 7.8421 70.7496 6.92786 69.8588C6.01362 68.968 5.5 67.7598 5.5 66.5V9.5C5.5 8.24022 6.01362 7.03204 6.92786 6.14124C7.8421 5.25044 9.08207 4.75 10.375 4.75H39.625ZM10.375 0C7.78914 0 5.30919 1.00089 3.48071 2.78249C1.65223 4.56408 0.625 6.98044 0.625 9.5V66.5C0.625 69.0196 1.65223 71.4359 3.48071 73.2175C5.30919 74.9991 7.78914 76 10.375 76H39.625C42.2109 76 44.6908 74.9991 46.5193 73.2175C48.3478 71.4359 49.375 69.0196 49.375 66.5V9.5C49.375 6.98044 48.3478 4.56408 46.5193 2.78249C44.6908 1.00089 42.2109 0 39.625 0L10.375 0Z" fill="white"/>
<path d="M25 66.5C26.2929 66.5 27.5329 65.9996 28.4471 65.1088C29.3614 64.218 29.875 63.0098 29.875 61.75C29.875 60.4902 29.3614 59.282 28.4471 58.3912C27.5329 57.5004 26.2929 57 25 57C23.7071 57 22.4671 57.5004 21.5529 58.3912C20.6386 59.282 20.125 60.4902 20.125 61.75C20.125 63.0098 20.6386 64.218 21.5529 65.1088C22.4671 65.9996 23.7071 66.5 25 66.5Z" fill="white"/>
</svg>
