<svg width="19" height="16" viewBox="0 0 26 24" fill="none" xmlns="http://www.w3.org/2000/svg">
<path d="M5.63989 23.4627L5.64007 23.4634C5.41128 23.5771 5.08717 23.3855 5.14724 23.0497L5.14729 23.0494L6.49604 15.4816L6.54361 15.2147L6.34585 15.0292L0.621332 9.6601C0.621281 9.66005 0.62123 9.66 0.621179 9.65995C0.376532 9.42984 0.529302 9.03829 0.807368 8.9998L0.808089 8.99969L8.76732 7.88613L9.02451 7.85015L9.14298 7.61905L12.6919 0.696219C12.8261 0.434594 13.1743 0.434594 13.3085 0.696219L16.8575 7.61905L16.9759 7.85015L17.2331 7.88613L25.1923 8.99969L25.1931 8.99979C25.471 9.03827 25.6237 9.42942 25.378 9.65958L25.3778 9.65982L19.6545 15.0292L19.4568 15.2147L19.5044 15.4816L20.8531 23.0494L20.8532 23.0497C20.9134 23.3864 20.5874 23.5781 20.3585 23.4625L13.2235 19.8532L12.9977 19.739L12.772 19.8532L5.63989 23.4627Z" stroke="#6C63FF"/>
</svg>
