<svg width="55" height="59" viewBox="0 0 55 59" fill="none" xmlns="http://www.w3.org/2000/svg">
<path d="M38.9073 52.4137L33.0877 46.6447L29.9194 49.7854L38.9073 58.6949L54.6361 43.1032L51.4679 39.9625L38.9073 52.4137Z" fill="#6C63FF"/>
<path d="M11.0578 12.4888C12.1354 12.4888 13.0091 11.6501 13.0091 10.6156C13.0091 9.58108 12.1354 8.74243 11.0578 8.74243C9.98008 8.74243 9.10645 9.58108 9.10645 10.6156C9.10645 11.6501 9.98008 12.4888 11.0578 12.4888Z" fill="#6C63FF"/>
<path d="M11.0578 29.972C12.1354 29.972 13.0091 29.1334 13.0091 28.0989C13.0091 27.0644 12.1354 26.2257 11.0578 26.2257C9.98008 26.2257 9.10645 27.0644 9.10645 28.0989C9.10645 29.1334 9.98008 29.972 11.0578 29.972Z" fill="#6C63FF"/>
<path d="M11.0578 47.4559C12.1354 47.4559 13.0091 46.6173 13.0091 45.5828C13.0091 44.5482 12.1354 43.7096 11.0578 43.7096C9.98008 43.7096 9.10645 44.5482 9.10645 45.5828C9.10645 46.6173 9.98008 47.4559 11.0578 47.4559Z" fill="#6C63FF"/>
<path d="M40.9776 0H4.55307C3.34552 0 2.18743 0.455447 1.33356 1.26615C0.479696 2.07685 0 3.1764 0 4.3229V51.8748C0 53.0214 0.479696 54.1209 1.33356 54.9316C2.18743 55.7423 3.34552 56.1978 4.55307 56.1978H22.7653V51.8748H4.55307V38.9061H45.5307V4.3229C45.5307 3.1764 45.051 2.07685 44.1971 1.26615C43.3432 0.455447 42.1851 0 40.9776 0ZM40.9776 34.5832H4.55307V21.6145H40.9776V34.5832ZM40.9776 17.2916H4.55307V4.3229H40.9776V17.2916Z" fill="#6C63FF"/>
</svg>
