<svg width="50" height="46" viewBox="0 0 50 46" fill="none" xmlns="http://www.w3.org/2000/svg">
<path d="M2.18252 7.86479H8.10104C9.07951 11.0713 12.4445 12.8796 15.6185 11.8911C17.5277 11.2883 19.0074 9.79354 19.604 7.86479H48.1704C49.1489 7.86479 49.9364 7.06918 49.9364 6.08069C49.9364 5.0922 49.1489 4.29659 48.1704 4.29659H19.604C18.6255 1.09003 15.2606 -0.718173 12.0865 0.270314C10.1773 0.87305 8.69767 2.36784 8.10104 4.29659H2.18252C1.20405 4.29659 0.416504 5.0922 0.416504 6.08069C0.416504 7.06918 1.20405 7.86479 2.18252 7.86479ZM12.1104 4.3207C13.0888 3.35632 14.6401 3.35632 15.6185 4.3207C16.5731 5.30919 16.5731 6.8763 15.6185 7.86479C14.6401 8.82916 13.0888 8.82916 12.1104 7.86479C11.6569 7.40671 11.3944 6.75575 11.3944 6.1048C11.3944 5.42973 11.6569 4.77878 12.1104 4.3207Z" fill="#6C63FF"/>
<path d="M2.18252 24.4481H30.749C31.7274 27.6546 35.0924 29.4628 38.2664 28.4743C40.1756 27.8716 41.6553 26.3768 42.2519 24.4481H48.1704C49.1489 24.4481 49.9364 23.6525 49.9364 22.6641C49.9364 21.6756 49.1489 20.88 48.1704 20.88H42.2519C41.2734 17.6735 37.9085 15.8653 34.7344 16.8538C32.8252 17.4565 31.3456 18.9513 30.749 20.88H2.18252C1.20405 20.88 0.416504 21.6756 0.416504 22.6641C0.416504 23.6525 1.20405 24.4481 2.18252 24.4481ZM34.7583 20.9041C35.7367 19.9397 37.288 19.9397 38.2664 20.9041C39.221 21.8926 39.221 23.4597 38.2664 24.4481C37.288 25.4125 35.7367 25.4125 34.7583 24.4481C34.3048 23.9901 34.0423 23.3391 34.0423 22.6882C34.0423 22.0131 34.3048 21.3622 34.7583 20.9041Z" fill="#6C63FF"/>
<path d="M2.18167 41.0315H13.7745C14.7525 44.238 18.1158 46.0462 21.2883 45.0577C23.1966 44.455 24.6755 42.9602 25.2719 41.0315H48.1713C49.1493 41.0315 49.9364 40.2359 49.9364 39.2474C49.9364 38.2589 49.1493 37.4633 48.1713 37.4633H25.2719C24.2939 34.2568 20.9305 32.4486 17.758 33.4371C15.8497 34.0398 14.3708 35.5346 13.7745 37.4633H2.18167C1.20367 37.4633 0.416504 38.2589 0.416504 39.2474C0.416504 40.2359 1.20367 41.0315 2.18167 41.0315ZM17.758 37.4874C18.736 36.523 20.2865 36.523 21.2645 37.4874C22.2186 38.4759 22.2186 40.043 21.2645 41.0315C20.2865 41.9958 18.736 41.9958 17.758 41.0315C17.3048 40.5734 17.0424 39.9224 17.0424 39.2715C17.0424 38.5964 17.3048 37.9455 17.758 37.4874Z" fill="#6C63FF"/>
</svg>
