<svg width="56" height="54" viewBox="0 0 56 54" fill="none" xmlns="http://www.w3.org/2000/svg">
<path d="M16.8613 26.9521L25.1781 34.9363L39.0395 21.6294" stroke="#6C63FF" stroke-width="5" stroke-linecap="round" stroke-linejoin="round"/>
<path d="M3 26.9523C3 23.8069 3.64536 20.6922 4.89923 17.7862C6.15311 14.8801 7.99094 12.2397 10.3078 10.0155C12.6247 7.7913 15.3752 6.02698 18.4023 4.82326C21.4294 3.61955 24.6738 3 27.9504 3C31.2269 3 34.4714 3.61955 37.4985 4.82326C40.5256 6.02698 43.2761 7.7913 45.593 10.0155C47.9098 12.2397 49.7477 14.8801 51.0015 17.7862C52.2554 20.6922 52.9008 23.8069 52.9008 26.9523C52.9008 33.3049 50.2721 39.3973 45.593 43.8892C40.9139 48.3811 34.5676 50.9047 27.9504 50.9047C21.3331 50.9047 14.9869 48.3811 10.3078 43.8892C5.62869 39.3973 3 33.3049 3 26.9523V26.9523Z" stroke="#6C63FF" stroke-width="5" stroke-linecap="round"/>
</svg>
